<mxfile host="app.diagrams.net" agent="Mozilla/5.0 (Windows NT 10.0; Win64; x64) AppleWebKit/537.36 (KHTML, like Gecko) Chrome/131.0.0.0 Safari/537.36" version="25.0.3">
  <diagram id="Tk342NN1UkqtzVRXFfBi" name="Page-1">
    <mxGraphModel dx="1687" dy="878" grid="1" gridSize="10" guides="1" tooltips="1" connect="1" arrows="1" fold="1" page="1" pageScale="1" pageWidth="850" pageHeight="1100" math="0" shadow="0">
      <root>
        <mxCell id="0" />
        <mxCell id="1" parent="0" />
        <mxCell id="FfUSWZ5zB3h-9L0izEx8-32" style="edgeStyle=orthogonalEdgeStyle;rounded=0;orthogonalLoop=1;jettySize=auto;html=1;entryX=0.5;entryY=0;entryDx=0;entryDy=0;" edge="1" parent="1" source="FfUSWZ5zB3h-9L0izEx8-1" target="FfUSWZ5zB3h-9L0izEx8-3">
          <mxGeometry relative="1" as="geometry" />
        </mxCell>
        <mxCell id="FfUSWZ5zB3h-9L0izEx8-1" value="&lt;font style=&quot;font-size: 24px;&quot;&gt;start&lt;/font&gt;" style="strokeWidth=2;html=1;shape=mxgraph.flowchart.start_1;whiteSpace=wrap;" vertex="1" parent="1">
          <mxGeometry x="375.5" y="10" width="100" height="60" as="geometry" />
        </mxCell>
        <mxCell id="FfUSWZ5zB3h-9L0izEx8-2" value="&lt;font style=&quot;font-size: 24px;&quot;&gt;end&lt;/font&gt;" style="strokeWidth=2;html=1;shape=mxgraph.flowchart.start_1;whiteSpace=wrap;" vertex="1" parent="1">
          <mxGeometry x="373" y="1580" width="100" height="60" as="geometry" />
        </mxCell>
        <mxCell id="FfUSWZ5zB3h-9L0izEx8-33" style="edgeStyle=orthogonalEdgeStyle;rounded=0;orthogonalLoop=1;jettySize=auto;html=1;entryX=0.5;entryY=0;entryDx=0;entryDy=0;" edge="1" parent="1" source="FfUSWZ5zB3h-9L0izEx8-3" target="FfUSWZ5zB3h-9L0izEx8-4">
          <mxGeometry relative="1" as="geometry" />
        </mxCell>
        <mxCell id="FfUSWZ5zB3h-9L0izEx8-3" value="file = fgets(&quot;a15-7.txt)" style="rounded=1;whiteSpace=wrap;html=1;absoluteArcSize=1;arcSize=14;strokeWidth=2;" vertex="1" parent="1">
          <mxGeometry x="363" y="110" width="125" height="70" as="geometry" />
        </mxCell>
        <mxCell id="FfUSWZ5zB3h-9L0izEx8-9" style="edgeStyle=orthogonalEdgeStyle;rounded=0;orthogonalLoop=1;jettySize=auto;html=1;entryX=0.5;entryY=0;entryDx=0;entryDy=0;" edge="1" parent="1" source="FfUSWZ5zB3h-9L0izEx8-4" target="FfUSWZ5zB3h-9L0izEx8-5">
          <mxGeometry relative="1" as="geometry" />
        </mxCell>
        <mxCell id="FfUSWZ5zB3h-9L0izEx8-41" style="edgeStyle=orthogonalEdgeStyle;rounded=0;orthogonalLoop=1;jettySize=auto;html=1;entryX=0.5;entryY=0;entryDx=0;entryDy=0;" edge="1" parent="1" source="FfUSWZ5zB3h-9L0izEx8-4" target="FfUSWZ5zB3h-9L0izEx8-37">
          <mxGeometry relative="1" as="geometry" />
        </mxCell>
        <mxCell id="FfUSWZ5zB3h-9L0izEx8-4" value="while(fgets(line, line, file)" style="rhombus;whiteSpace=wrap;html=1;" vertex="1" parent="1">
          <mxGeometry x="318" y="210" width="215" height="140" as="geometry" />
        </mxCell>
        <mxCell id="FfUSWZ5zB3h-9L0izEx8-10" style="edgeStyle=orthogonalEdgeStyle;rounded=0;orthogonalLoop=1;jettySize=auto;html=1;entryX=0.5;entryY=0;entryDx=0;entryDy=0;" edge="1" parent="1" source="FfUSWZ5zB3h-9L0izEx8-5" target="FfUSWZ5zB3h-9L0izEx8-6">
          <mxGeometry relative="1" as="geometry" />
        </mxCell>
        <mxCell id="FfUSWZ5zB3h-9L0izEx8-5" value="sscanf(line, people[numPeople].name, people[numPeople].birthYear, people[numPeople].birthMonth, people[numPeople]&lt;span style=&quot;background-color: initial;&quot;&gt;.birthday&lt;/span&gt;" style="rounded=1;whiteSpace=wrap;html=1;absoluteArcSize=1;arcSize=14;strokeWidth=2;" vertex="1" parent="1">
          <mxGeometry x="570" y="300" width="355" height="40" as="geometry" />
        </mxCell>
        <mxCell id="FfUSWZ5zB3h-9L0izEx8-11" style="edgeStyle=orthogonalEdgeStyle;rounded=0;orthogonalLoop=1;jettySize=auto;html=1;entryX=1;entryY=1;entryDx=0;entryDy=0;" edge="1" parent="1" source="FfUSWZ5zB3h-9L0izEx8-6" target="FfUSWZ5zB3h-9L0izEx8-4">
          <mxGeometry relative="1" as="geometry" />
        </mxCell>
        <mxCell id="FfUSWZ5zB3h-9L0izEx8-6" value="numPeople++" style="rounded=1;whiteSpace=wrap;html=1;absoluteArcSize=1;arcSize=14;strokeWidth=2;" vertex="1" parent="1">
          <mxGeometry x="570" y="390" width="355" height="40" as="geometry" />
        </mxCell>
        <mxCell id="FfUSWZ5zB3h-9L0izEx8-35" style="edgeStyle=orthogonalEdgeStyle;rounded=0;orthogonalLoop=1;jettySize=auto;html=1;" edge="1" parent="1" source="FfUSWZ5zB3h-9L0izEx8-12" target="FfUSWZ5zB3h-9L0izEx8-13">
          <mxGeometry relative="1" as="geometry" />
        </mxCell>
        <mxCell id="FfUSWZ5zB3h-9L0izEx8-12" value="*maxAgePerson = &amp;amp;people[0]" style="rounded=1;whiteSpace=wrap;html=1;absoluteArcSize=1;arcSize=14;strokeWidth=2;" vertex="1" parent="1">
          <mxGeometry x="246" y="640" width="355" height="40" as="geometry" />
        </mxCell>
        <mxCell id="FfUSWZ5zB3h-9L0izEx8-36" style="edgeStyle=orthogonalEdgeStyle;rounded=0;orthogonalLoop=1;jettySize=auto;html=1;" edge="1" parent="1" source="FfUSWZ5zB3h-9L0izEx8-13" target="FfUSWZ5zB3h-9L0izEx8-14">
          <mxGeometry relative="1" as="geometry" />
        </mxCell>
        <mxCell id="FfUSWZ5zB3h-9L0izEx8-13" value="*minAgePerson = &amp;amp;people[0]" style="rounded=1;whiteSpace=wrap;html=1;absoluteArcSize=1;arcSize=14;strokeWidth=2;" vertex="1" parent="1">
          <mxGeometry x="246" y="730" width="355" height="40" as="geometry" />
        </mxCell>
        <mxCell id="FfUSWZ5zB3h-9L0izEx8-16" style="edgeStyle=orthogonalEdgeStyle;rounded=0;orthogonalLoop=1;jettySize=auto;html=1;entryX=0.5;entryY=0;entryDx=0;entryDy=0;" edge="1" parent="1" source="FfUSWZ5zB3h-9L0izEx8-14" target="FfUSWZ5zB3h-9L0izEx8-15">
          <mxGeometry relative="1" as="geometry" />
        </mxCell>
        <mxCell id="FfUSWZ5zB3h-9L0izEx8-30" style="edgeStyle=orthogonalEdgeStyle;rounded=0;orthogonalLoop=1;jettySize=auto;html=1;entryX=0.5;entryY=0;entryDx=0;entryDy=0;" edge="1" parent="1" source="FfUSWZ5zB3h-9L0izEx8-14" target="FfUSWZ5zB3h-9L0izEx8-29">
          <mxGeometry relative="1" as="geometry" />
        </mxCell>
        <mxCell id="FfUSWZ5zB3h-9L0izEx8-14" value="for i &amp;lt; numPeople, i++" style="rhombus;whiteSpace=wrap;html=1;" vertex="1" parent="1">
          <mxGeometry x="342.5" y="810" width="162" height="110" as="geometry" />
        </mxCell>
        <mxCell id="FfUSWZ5zB3h-9L0izEx8-18" style="edgeStyle=orthogonalEdgeStyle;rounded=0;orthogonalLoop=1;jettySize=auto;html=1;entryX=0.5;entryY=0;entryDx=0;entryDy=0;" edge="1" parent="1" source="FfUSWZ5zB3h-9L0izEx8-15" target="FfUSWZ5zB3h-9L0izEx8-17">
          <mxGeometry relative="1" as="geometry" />
        </mxCell>
        <mxCell id="FfUSWZ5zB3h-9L0izEx8-15" value="people[i].name, people[i].ageYears,&amp;nbsp;&quot;Years&quot;, people[i].ageMonths" style="shape=parallelogram;perimeter=parallelogramPerimeter;whiteSpace=wrap;html=1;fixedSize=1;" vertex="1" parent="1">
          <mxGeometry x="601" y="910" width="277" height="60" as="geometry" />
        </mxCell>
        <mxCell id="FfUSWZ5zB3h-9L0izEx8-20" style="edgeStyle=orthogonalEdgeStyle;rounded=0;orthogonalLoop=1;jettySize=auto;html=1;entryX=0.5;entryY=0;entryDx=0;entryDy=0;" edge="1" parent="1" source="FfUSWZ5zB3h-9L0izEx8-17" target="FfUSWZ5zB3h-9L0izEx8-19">
          <mxGeometry relative="1" as="geometry" />
        </mxCell>
        <mxCell id="FfUSWZ5zB3h-9L0izEx8-23" style="edgeStyle=orthogonalEdgeStyle;rounded=0;orthogonalLoop=1;jettySize=auto;html=1;entryX=0.5;entryY=0;entryDx=0;entryDy=0;" edge="1" parent="1" source="FfUSWZ5zB3h-9L0izEx8-17" target="FfUSWZ5zB3h-9L0izEx8-22">
          <mxGeometry relative="1" as="geometry" />
        </mxCell>
        <mxCell id="FfUSWZ5zB3h-9L0izEx8-17" value="people[i].ageYears &amp;gt; maxAgePerson -&amp;gt; ageYears || people[i].ageYears == maxAgePerson -&amp;gt; ageYears &amp;amp;&amp;amp; people[i].ageMonths &amp;gt; maxAgePerson -&amp;gt; ageMonths" style="rhombus;whiteSpace=wrap;html=1;" vertex="1" parent="1">
          <mxGeometry x="589.75" y="1040" width="299.5" height="140" as="geometry" />
        </mxCell>
        <mxCell id="FfUSWZ5zB3h-9L0izEx8-21" style="edgeStyle=orthogonalEdgeStyle;rounded=0;orthogonalLoop=1;jettySize=auto;html=1;entryX=1;entryY=1;entryDx=0;entryDy=0;" edge="1" parent="1" source="FfUSWZ5zB3h-9L0izEx8-19" target="FfUSWZ5zB3h-9L0izEx8-17">
          <mxGeometry relative="1" as="geometry" />
        </mxCell>
        <mxCell id="FfUSWZ5zB3h-9L0izEx8-19" value="maxAgePerson = &amp;amp;people[i]" style="rounded=1;whiteSpace=wrap;html=1;absoluteArcSize=1;arcSize=14;strokeWidth=2;" vertex="1" parent="1">
          <mxGeometry x="908" y="1210" width="355" height="40" as="geometry" />
        </mxCell>
        <mxCell id="FfUSWZ5zB3h-9L0izEx8-25" style="edgeStyle=orthogonalEdgeStyle;rounded=0;orthogonalLoop=1;jettySize=auto;html=1;entryX=0.5;entryY=0;entryDx=0;entryDy=0;" edge="1" parent="1" source="FfUSWZ5zB3h-9L0izEx8-22" target="FfUSWZ5zB3h-9L0izEx8-24">
          <mxGeometry relative="1" as="geometry" />
        </mxCell>
        <mxCell id="FfUSWZ5zB3h-9L0izEx8-28" style="edgeStyle=orthogonalEdgeStyle;rounded=0;orthogonalLoop=1;jettySize=auto;html=1;entryX=1;entryY=1;entryDx=0;entryDy=0;" edge="1" parent="1" source="FfUSWZ5zB3h-9L0izEx8-22" target="FfUSWZ5zB3h-9L0izEx8-14">
          <mxGeometry relative="1" as="geometry" />
        </mxCell>
        <mxCell id="FfUSWZ5zB3h-9L0izEx8-22" value="people[i].ageYears &amp;lt; maxAgePerson -&amp;gt; ageYears || people[i].ageYears == maxAgePerson -&amp;gt; ageYears &amp;amp;&amp;amp; people[i].ageMonths &amp;lt; maxAgePerson -&amp;gt; ageMonths" style="rhombus;whiteSpace=wrap;html=1;" vertex="1" parent="1">
          <mxGeometry x="589.75" y="1270" width="299.5" height="140" as="geometry" />
        </mxCell>
        <mxCell id="FfUSWZ5zB3h-9L0izEx8-27" style="edgeStyle=orthogonalEdgeStyle;rounded=0;orthogonalLoop=1;jettySize=auto;html=1;entryX=1;entryY=1;entryDx=0;entryDy=0;" edge="1" parent="1" source="FfUSWZ5zB3h-9L0izEx8-24" target="FfUSWZ5zB3h-9L0izEx8-22">
          <mxGeometry relative="1" as="geometry" />
        </mxCell>
        <mxCell id="FfUSWZ5zB3h-9L0izEx8-24" value="minAgePerson = &amp;amp;people[i]" style="rounded=1;whiteSpace=wrap;html=1;absoluteArcSize=1;arcSize=14;strokeWidth=2;" vertex="1" parent="1">
          <mxGeometry x="908" y="1420" width="355" height="40" as="geometry" />
        </mxCell>
        <mxCell id="FfUSWZ5zB3h-9L0izEx8-31" style="edgeStyle=orthogonalEdgeStyle;rounded=0;orthogonalLoop=1;jettySize=auto;html=1;" edge="1" parent="1" source="FfUSWZ5zB3h-9L0izEx8-29" target="FfUSWZ5zB3h-9L0izEx8-2">
          <mxGeometry relative="1" as="geometry" />
        </mxCell>
        <mxCell id="FfUSWZ5zB3h-9L0izEx8-29" value="output&lt;br&gt;&quot;Max:&quot;, maxAgePerson -&amp;gt; name, maxAgePerson -&amp;gt; ageYears, &quot;Years&quot;, maxAgePerson -&amp;gt; ageMonths, &quot;Months&quot;" style="shape=parallelogram;perimeter=parallelogramPerimeter;whiteSpace=wrap;html=1;fixedSize=1;" vertex="1" parent="1">
          <mxGeometry x="272" y="1420" width="303" height="80" as="geometry" />
        </mxCell>
        <mxCell id="FfUSWZ5zB3h-9L0izEx8-39" style="edgeStyle=orthogonalEdgeStyle;rounded=0;orthogonalLoop=1;jettySize=auto;html=1;entryX=0.5;entryY=0;entryDx=0;entryDy=0;" edge="1" parent="1" source="FfUSWZ5zB3h-9L0izEx8-37" target="FfUSWZ5zB3h-9L0izEx8-38">
          <mxGeometry relative="1" as="geometry" />
        </mxCell>
        <mxCell id="FfUSWZ5zB3h-9L0izEx8-43" style="edgeStyle=orthogonalEdgeStyle;rounded=0;orthogonalLoop=1;jettySize=auto;html=1;entryX=0.5;entryY=0;entryDx=0;entryDy=0;" edge="1" parent="1" source="FfUSWZ5zB3h-9L0izEx8-37" target="FfUSWZ5zB3h-9L0izEx8-12">
          <mxGeometry relative="1" as="geometry" />
        </mxCell>
        <mxCell id="FfUSWZ5zB3h-9L0izEx8-37" value="for i &amp;lt; numPeople, i++" style="rhombus;whiteSpace=wrap;html=1;" vertex="1" parent="1">
          <mxGeometry x="344" y="440" width="162" height="110" as="geometry" />
        </mxCell>
        <mxCell id="FfUSWZ5zB3h-9L0izEx8-40" style="edgeStyle=orthogonalEdgeStyle;rounded=0;orthogonalLoop=1;jettySize=auto;html=1;entryX=1;entryY=1;entryDx=0;entryDy=0;" edge="1" parent="1" source="FfUSWZ5zB3h-9L0izEx8-38" target="FfUSWZ5zB3h-9L0izEx8-37">
          <mxGeometry relative="1" as="geometry" />
        </mxCell>
        <mxCell id="FfUSWZ5zB3h-9L0izEx8-38" value="calculateAge(&amp;amp;people[i], currentYear, currentMonth, currentDay)" style="rounded=1;whiteSpace=wrap;html=1;absoluteArcSize=1;arcSize=14;strokeWidth=2;" vertex="1" parent="1">
          <mxGeometry x="577" y="560" width="355" height="40" as="geometry" />
        </mxCell>
        <mxCell id="FfUSWZ5zB3h-9L0izEx8-61" style="edgeStyle=orthogonalEdgeStyle;rounded=0;orthogonalLoop=1;jettySize=auto;html=1;" edge="1" parent="1" source="FfUSWZ5zB3h-9L0izEx8-44" target="FfUSWZ5zB3h-9L0izEx8-45">
          <mxGeometry relative="1" as="geometry" />
        </mxCell>
        <mxCell id="FfUSWZ5zB3h-9L0izEx8-44" value="&lt;font style=&quot;font-size: 16px;&quot;&gt;calculateAge(*p, currentYear, currentMonth, currentDay&lt;/font&gt;" style="strokeWidth=2;html=1;shape=mxgraph.flowchart.start_1;whiteSpace=wrap;" vertex="1" parent="1">
          <mxGeometry x="1290" y="10" width="220" height="110" as="geometry" />
        </mxCell>
        <mxCell id="FfUSWZ5zB3h-9L0izEx8-62" style="edgeStyle=orthogonalEdgeStyle;rounded=0;orthogonalLoop=1;jettySize=auto;html=1;entryX=0.5;entryY=0;entryDx=0;entryDy=0;" edge="1" parent="1" source="FfUSWZ5zB3h-9L0izEx8-45" target="FfUSWZ5zB3h-9L0izEx8-46">
          <mxGeometry relative="1" as="geometry" />
        </mxCell>
        <mxCell id="FfUSWZ5zB3h-9L0izEx8-45" value="p -&amp;gt; ageYears = currentYear - p -&amp;gt; birthYear" style="rounded=1;whiteSpace=wrap;html=1;absoluteArcSize=1;arcSize=14;strokeWidth=2;" vertex="1" parent="1">
          <mxGeometry x="1222.5" y="160" width="355" height="40" as="geometry" />
        </mxCell>
        <mxCell id="FfUSWZ5zB3h-9L0izEx8-63" style="edgeStyle=orthogonalEdgeStyle;rounded=0;orthogonalLoop=1;jettySize=auto;html=1;" edge="1" parent="1" source="FfUSWZ5zB3h-9L0izEx8-46" target="FfUSWZ5zB3h-9L0izEx8-47">
          <mxGeometry relative="1" as="geometry" />
        </mxCell>
        <mxCell id="FfUSWZ5zB3h-9L0izEx8-46" value="p -&amp;gt; ageMonths = currentMonth - p -&amp;gt; birthMonth" style="rounded=1;whiteSpace=wrap;html=1;absoluteArcSize=1;arcSize=14;strokeWidth=2;" vertex="1" parent="1">
          <mxGeometry x="1222.5" y="250" width="355" height="40" as="geometry" />
        </mxCell>
        <mxCell id="FfUSWZ5zB3h-9L0izEx8-50" style="edgeStyle=orthogonalEdgeStyle;rounded=0;orthogonalLoop=1;jettySize=auto;html=1;entryX=0.5;entryY=0;entryDx=0;entryDy=0;" edge="1" parent="1" source="FfUSWZ5zB3h-9L0izEx8-47" target="FfUSWZ5zB3h-9L0izEx8-48">
          <mxGeometry relative="1" as="geometry" />
        </mxCell>
        <mxCell id="FfUSWZ5zB3h-9L0izEx8-64" style="edgeStyle=orthogonalEdgeStyle;rounded=0;orthogonalLoop=1;jettySize=auto;html=1;entryX=0.5;entryY=0;entryDx=0;entryDy=0;" edge="1" parent="1" source="FfUSWZ5zB3h-9L0izEx8-47" target="FfUSWZ5zB3h-9L0izEx8-53">
          <mxGeometry relative="1" as="geometry" />
        </mxCell>
        <mxCell id="FfUSWZ5zB3h-9L0izEx8-47" value="p -&amp;gt; ageMonths &amp;lt; 0" style="rhombus;whiteSpace=wrap;html=1;" vertex="1" parent="1">
          <mxGeometry x="1319" y="330" width="162" height="110" as="geometry" />
        </mxCell>
        <mxCell id="FfUSWZ5zB3h-9L0izEx8-51" style="edgeStyle=orthogonalEdgeStyle;rounded=0;orthogonalLoop=1;jettySize=auto;html=1;entryX=0.5;entryY=0;entryDx=0;entryDy=0;" edge="1" parent="1" source="FfUSWZ5zB3h-9L0izEx8-48" target="FfUSWZ5zB3h-9L0izEx8-49">
          <mxGeometry relative="1" as="geometry" />
        </mxCell>
        <mxCell id="FfUSWZ5zB3h-9L0izEx8-48" value="p -&amp;gt;&amp;nbsp; ageMonths --" style="rounded=1;whiteSpace=wrap;html=1;absoluteArcSize=1;arcSize=14;strokeWidth=2;" vertex="1" parent="1">
          <mxGeometry x="1600" y="420" width="152.5" height="40" as="geometry" />
        </mxCell>
        <mxCell id="FfUSWZ5zB3h-9L0izEx8-52" style="edgeStyle=orthogonalEdgeStyle;rounded=0;orthogonalLoop=1;jettySize=auto;html=1;entryX=1;entryY=1;entryDx=0;entryDy=0;" edge="1" parent="1" source="FfUSWZ5zB3h-9L0izEx8-49" target="FfUSWZ5zB3h-9L0izEx8-47">
          <mxGeometry relative="1" as="geometry" />
        </mxCell>
        <mxCell id="FfUSWZ5zB3h-9L0izEx8-49" value="p -&amp;gt; ageMonths += 12" style="rounded=1;whiteSpace=wrap;html=1;absoluteArcSize=1;arcSize=14;strokeWidth=2;" vertex="1" parent="1">
          <mxGeometry x="1600" y="495" width="152.5" height="40" as="geometry" />
        </mxCell>
        <mxCell id="FfUSWZ5zB3h-9L0izEx8-65" style="edgeStyle=orthogonalEdgeStyle;rounded=0;orthogonalLoop=1;jettySize=auto;html=1;entryX=0.5;entryY=0;entryDx=0;entryDy=0;" edge="1" parent="1" source="FfUSWZ5zB3h-9L0izEx8-53" target="FfUSWZ5zB3h-9L0izEx8-54">
          <mxGeometry relative="1" as="geometry" />
        </mxCell>
        <mxCell id="FfUSWZ5zB3h-9L0izEx8-53" value="currentDay &amp;lt; p -&amp;gt; birthDay" style="rhombus;whiteSpace=wrap;html=1;" vertex="1" parent="1">
          <mxGeometry x="1319" y="560" width="162" height="110" as="geometry" />
        </mxCell>
        <mxCell id="FfUSWZ5zB3h-9L0izEx8-66" style="edgeStyle=orthogonalEdgeStyle;rounded=0;orthogonalLoop=1;jettySize=auto;html=1;" edge="1" parent="1" source="FfUSWZ5zB3h-9L0izEx8-54" target="FfUSWZ5zB3h-9L0izEx8-55">
          <mxGeometry relative="1" as="geometry" />
        </mxCell>
        <mxCell id="FfUSWZ5zB3h-9L0izEx8-54" value="p -&amp;gt; ageMonths --" style="rounded=1;whiteSpace=wrap;html=1;absoluteArcSize=1;arcSize=14;strokeWidth=2;" vertex="1" parent="1">
          <mxGeometry x="1548" y="650" width="152.5" height="40" as="geometry" />
        </mxCell>
        <mxCell id="FfUSWZ5zB3h-9L0izEx8-58" style="edgeStyle=orthogonalEdgeStyle;rounded=0;orthogonalLoop=1;jettySize=auto;html=1;entryX=0.5;entryY=0;entryDx=0;entryDy=0;" edge="1" parent="1" source="FfUSWZ5zB3h-9L0izEx8-55" target="FfUSWZ5zB3h-9L0izEx8-56">
          <mxGeometry relative="1" as="geometry" />
        </mxCell>
        <mxCell id="FfUSWZ5zB3h-9L0izEx8-67" style="edgeStyle=orthogonalEdgeStyle;rounded=0;orthogonalLoop=1;jettySize=auto;html=1;entryX=1;entryY=1;entryDx=0;entryDy=0;" edge="1" parent="1" source="FfUSWZ5zB3h-9L0izEx8-55" target="FfUSWZ5zB3h-9L0izEx8-53">
          <mxGeometry relative="1" as="geometry" />
        </mxCell>
        <mxCell id="FfUSWZ5zB3h-9L0izEx8-55" value="p -&amp;gt; ageMonths&amp;nbsp; &amp;lt; 0" style="rhombus;whiteSpace=wrap;html=1;" vertex="1" parent="1">
          <mxGeometry x="1543.25" y="750" width="162" height="110" as="geometry" />
        </mxCell>
        <mxCell id="FfUSWZ5zB3h-9L0izEx8-59" style="edgeStyle=orthogonalEdgeStyle;rounded=0;orthogonalLoop=1;jettySize=auto;html=1;entryX=0.5;entryY=0;entryDx=0;entryDy=0;" edge="1" parent="1" source="FfUSWZ5zB3h-9L0izEx8-56" target="FfUSWZ5zB3h-9L0izEx8-57">
          <mxGeometry relative="1" as="geometry" />
        </mxCell>
        <mxCell id="FfUSWZ5zB3h-9L0izEx8-56" value="p -&amp;gt; ageYears --" style="rounded=1;whiteSpace=wrap;html=1;absoluteArcSize=1;arcSize=14;strokeWidth=2;" vertex="1" parent="1">
          <mxGeometry x="1750" y="860" width="152.5" height="40" as="geometry" />
        </mxCell>
        <mxCell id="FfUSWZ5zB3h-9L0izEx8-60" style="edgeStyle=orthogonalEdgeStyle;rounded=0;orthogonalLoop=1;jettySize=auto;html=1;entryX=1;entryY=1;entryDx=0;entryDy=0;" edge="1" parent="1" source="FfUSWZ5zB3h-9L0izEx8-57" target="FfUSWZ5zB3h-9L0izEx8-55">
          <mxGeometry relative="1" as="geometry" />
        </mxCell>
        <mxCell id="FfUSWZ5zB3h-9L0izEx8-57" value="p -&amp;gt; ageMonths += 12" style="rounded=1;whiteSpace=wrap;html=1;absoluteArcSize=1;arcSize=14;strokeWidth=2;" vertex="1" parent="1">
          <mxGeometry x="1750" y="950" width="152.5" height="40" as="geometry" />
        </mxCell>
        <mxCell id="FfUSWZ5zB3h-9L0izEx8-68" value="&lt;font style=&quot;font-size: 24px;&quot;&gt;end&lt;/font&gt;" style="strokeWidth=2;html=1;shape=mxgraph.flowchart.start_1;whiteSpace=wrap;" vertex="1" parent="1">
          <mxGeometry x="1350" y="1000" width="100" height="60" as="geometry" />
        </mxCell>
        <mxCell id="FfUSWZ5zB3h-9L0izEx8-69" style="edgeStyle=orthogonalEdgeStyle;rounded=0;orthogonalLoop=1;jettySize=auto;html=1;entryX=0.5;entryY=0;entryDx=0;entryDy=0;entryPerimeter=0;" edge="1" parent="1" source="FfUSWZ5zB3h-9L0izEx8-53" target="FfUSWZ5zB3h-9L0izEx8-68">
          <mxGeometry relative="1" as="geometry" />
        </mxCell>
      </root>
    </mxGraphModel>
  </diagram>
</mxfile>
